<svg xmlns="http://www.w3.org/2000/svg" width="960" height="200" viewBox="0 0 960 200">
  
  <defs>
    <linearGradient id="bgb" x1="0" y1="0" x2="0.3" y2="1">
      <stop offset="0%" stop-color="#0B1929"/>
      <stop offset="50%" stop-color="#0F2340"/>
      <stop offset="100%" stop-color="#162D50"/>
    </linearGradient>
    <linearGradient id="g1b" x1="0" y1="0" x2="1" y2="1">
      <stop offset="0%" stop-color="#0A1628"/>
      <stop offset="100%" stop-color="#1E3A5F"/>
    </linearGradient>
    <linearGradient id="g2b" x1="0" y1="0" x2="1" y2="1">
      <stop offset="0%" stop-color="#1E3A5F"/>
      <stop offset="100%" stop-color="#2B5EA7"/>
    </linearGradient>
    <linearGradient id="g3b" x1="0" y1="0" x2="1" y2="1">
      <stop offset="0%" stop-color="#4A7FCF"/>
      <stop offset="100%" stop-color="#CD7F32"/>
    </linearGradient>
    <linearGradient id="shineb" x1="0" y1="0" x2="0" y2="1">
      <stop offset="0%" stop-color="#FFFFFF" stop-opacity="0.08"/>
      <stop offset="100%" stop-color="#FFFFFF" stop-opacity="0"/>
    </linearGradient>
    <radialGradient id="glowb" cx="50%" cy="35%" r="40%">
      <stop offset="0%" stop-color="#2B5EA7" stop-opacity="0.15"/>
      <stop offset="100%" stop-color="#0A1628" stop-opacity="0"/>
    </radialGradient>
    <filter id="shadowb" x="-10%" y="-10%" width="120%" height="120%">
      <feDropShadow dx="0" dy="2" stdDeviation="6" flood-color="#000" flood-opacity="0.3"/>
    </filter>
  </defs>

  <!-- Background -->
  <rect width="960" height="200" rx="12" fill="url(#bgb)"/>
  <rect width="960" height="200" rx="12" fill="url(#glowb)"/>

  <!-- Logo -->
  
  <g transform="translate(60, 48) scale(2.6)" filter="url(#shadowb)">
    <path d="M16 26 L2 19 L16 12 L30 19 Z" fill="url(#g1b)" opacity="0.9"/>
    <path d="M16 21 L2 14 L16 7 L30 14 Z" fill="url(#g2b)" opacity="0.9"/>
    <path d="M16 16 L2 9 L16 2 L30 9 Z" fill="url(#g3b)" opacity="0.95"/>
    <path d="M16 2 L2 9 L16 16 Z" fill="#fff" opacity="0.15"/>
  </g>

  <!-- Title -->
  <text x="180" y="82" font-family="system-ui, -apple-system, sans-serif" font-size="46" font-weight="700" fill="#FFFFFF" letter-spacing="-0.5">Specialist Agent</text>

  <!-- Tagline -->
  <text x="180" y="120" font-family="system-ui, -apple-system, sans-serif" font-size="18" fill="#7BA3CC">Your AI development team - any framework, any stack</text>

  <!-- URL -->
  <text x="180" y="160" font-family="system-ui, -apple-system, sans-serif" font-size="13" fill="#4A6A8A" letter-spacing="2">specialistagent.com.br</text>

  <!-- Right side accent -->
  <rect x="957" y="0" width="3" height="200" rx="0" fill="url(#g3b)" opacity="0.4"/>
</svg>
